<svg width="118" height="73" viewBox="0 0 118 73" fill="none" xmlns="http://www.w3.org/2000/svg">
<path d="M0.77002 0.895996H117.23V72.1043H0.77002V0.895996Z" fill="white"/>
<path d="M1.91406 2.06152H116.084V70.875H1.91406V2.06152Z" fill="#005EAA"/>
<path d="M48.7815 70.8604L116.061 2.7034V2.02197H115.723L47.7745 70.8604H48.7815ZM6.36398 70.8604L10.9116 2.02197H10.1946L5.64697 70.8604H6.36398ZM10.0006 70.8604L19.8235 2.02197H19.0976L9.28007 70.8604H10.0006ZM13.8953 70.8604L29.2585 2.02197H28.5326L13.1587 70.8604H13.8953ZM18.1689 70.8604L40.0991 2.02197H39.3607L17.4234 70.8604H18.1689ZM22.2005 70.8604L50.3757 2.02197H49.6017L21.4248 70.8604H22.2005ZM26.8388 70.8604L62.0791 2.02197H61.2927L26.0329 70.8604H26.8388ZM79.6877 2.02197H78.8319L33.2065 70.8604H34.0605L79.6877 2.02197ZM95.9566 2.02197H95.0581L39.5902 70.8604H40.5065L95.9566 2.02197ZM116.061 28.0692V27.1654L61.0614 70.8604H62.1948L116.061 28.0692ZM116.061 47.0033V46.1671L76.5474 70.8604H77.8996L116.061 47.0033ZM116.061 64.8699V64.0764L101.522 70.8604H103.209L116.061 64.8699Z" fill="white"/>
<path d="M35.9926 43.4083C34.58 44.7622 31.0287 46.2194 28.4222 46.1945C20.8358 46.1873 17.2934 39.7396 17.2294 29.8936C17.281 20.576 21.1044 14.6477 27.6749 14.6335C32.372 14.6389 34.6565 17.3646 35.9037 18.989L37.2772 20.818V12.349L36.8377 12.1444C34.1298 10.8848 30.6924 10.2959 27.5575 10.2905C15.7633 10.3172 6.7642 18.7719 6.74463 30.7067C6.7642 42.9439 15.2705 50.6353 27.4543 50.6513H27.5184C33.5676 50.6513 36.6705 48.8277 38.3074 47.5733L38.7931 47.205L36.7737 42.6752L35.9926 43.4083ZM69.041 14.694C65.0947 11.7993 60.1522 10.9417 55.9355 10.9417H41.5312V49.9592H56.8731C64.3155 49.9414 75.8125 45.2177 75.8303 30.3437C75.8446 22.5544 72.9997 17.5887 69.041 14.694ZM51.0054 45.433V15.3487C57.9709 15.5338 65.3865 16.3842 65.5182 30.5021C65.4061 44.2124 57.8197 45.2462 51.0054 45.433ZM108.688 42.6752L107.907 43.4083C106.495 44.7658 102.954 46.2194 100.349 46.1945C92.7646 46.1945 89.2187 39.7396 89.1546 29.8971C89.2045 20.5707 93.035 14.6442 99.6145 14.6317C104.303 14.6371 106.592 17.3646 107.817 18.9872L109.197 20.8411V12.349L108.758 12.1444C106.062 10.883 102.625 10.2976 99.4775 10.2923C87.6868 10.3172 78.7073 18.7701 78.6895 30.7067C78.7073 42.9474 87.194 50.63 99.3885 50.6513H99.481C105.511 50.6513 108.601 48.8241 110.24 47.5733L110.725 47.205L108.688 42.6752Z" fill="white"/>
</svg> 
