<svg width="77" height="30" viewBox="0 0 77 30" fill="none" xmlns="http://www.w3.org/2000/svg">
<g id="vector">
<path d="M0 0H12.3522C14.7878 0 16.7363 0.384168 18.2673 1.11758C19.7983 1.85099 21.0161 2.89872 21.9903 4.29569C22.9646 5.69267 23.6953 7.26426 24.1128 9.11525C24.5304 10.9662 24.7739 12.8871 24.7739 14.9127C24.7739 18.1257 24.4608 20.6054 23.7997 22.3865C23.1386 24.1676 22.2339 25.6345 21.0857 26.8219C19.9374 28.0093 18.6848 28.8126 17.3278 29.1967C15.5185 29.7555 13.8483 30 12.387 30H0V0ZM8.31596 6.81024V23.1898H10.3689C12.1086 23.1898 13.3264 22.9802 14.0919 22.5611C14.8574 22.142 15.4141 21.3737 15.8316 20.326C16.2492 19.2433 16.458 17.532 16.458 15.1222C16.458 11.9441 16.0056 9.77881 15.0662 8.59138C14.1267 7.40396 12.5957 6.84517 10.4384 6.84517H8.35076L8.31596 6.81024Z" fill="#005EAA"/>
<path d="M27.4522 0H46.4475V6.11888H34.3116V11.875H41.6986V18.125H34.3116V23.8811H46.8696V30H27.4522V0Z" fill="#005EAA"/>
<path d="M68.6195 14.8079L76.931 0H67.9297L63.3429 9.22002L58.6181 0H49.5478L57.9283 14.6682L49.6168 30H58.6181L63.2049 20.78L67.9297 30H77L68.6195 14.8079Z" fill="#005EAA"/>
</g>
</svg>
