<svg width="60" height="24" viewBox="0 0 60 24" fill="none" xmlns="http://www.w3.org/2000/svg">
<path d="M0 0.5H9.62506C11.523 0.5 13.0413 0.794529 14.2342 1.35681C15.4272 1.91909 16.3762 2.72235 17.1353 3.79336C17.8945 4.86438 18.4639 6.06927 18.7892 7.48836C19.1146 8.90745 19.3043 10.3801 19.3043 11.9331C19.3043 14.3964 19.0603 16.2974 18.5452 17.663C18.03 19.0285 17.3251 20.1531 16.4304 21.0634C15.5357 21.9738 14.5596 22.5896 13.5022 22.8842C12.0923 23.3126 10.7909 23.5 9.65217 23.5H0V0.5ZM6.47997 5.72119V18.2788H8.07963C9.43527 18.2788 10.3842 18.1182 10.9807 17.7969C11.5772 17.4756 12.011 16.8865 12.3363 16.0832C12.6617 15.2532 12.8244 13.9412 12.8244 12.0937C12.8244 9.65716 12.4719 7.99709 11.7399 7.08673C11.0078 6.17637 9.81485 5.74796 8.13385 5.74796H6.50708L6.47997 5.72119Z" fill="#333333"/>
<path d="M21.3913 0.5H36.1928V5.19114H26.7363V9.85548H32.4924V14.1445H26.7363V18.8089H36.5217V23.5H21.3913V0.5Z" fill="#333333"/>
<path d="M53.4697 11.8527L59.9463 0.5H52.9323L49.3581 7.56869L45.6764 0.5H38.6087L45.139 11.7456L38.6624 23.5H45.6764L49.2506 16.4313L52.9323 23.5H60L53.4697 11.8527Z" fill="#333333"/>
</svg> 
