<svg width="100%" height="auto" viewBox="0 0 118 46" fill="none" xmlns="http://www.w3.org/2000/svg">
<path d="M0.77002 0.895996H19.4523C23.1361 0.895996 26.0832 1.47225 28.3987 2.57236C30.7142 3.67248 32.5562 5.24407 34.0297 7.33953C35.5032 9.43499 36.6084 11.7924 37.2399 14.5689C37.8714 17.3454 38.2398 20.2266 38.2398 23.265C38.2398 28.0846 37.7661 31.804 36.7662 34.4757C35.7664 37.1474 34.3981 39.3477 32.6614 41.1288C30.9248 42.91 29.0302 44.1149 26.9778 44.6911C24.2412 45.5293 21.7152 45.896 19.5049 45.896H0.77002V0.895996ZM13.3476 11.1114V35.6806H16.4526C19.0839 35.6806 20.9258 35.3663 22.0836 34.7377C23.2413 34.109 24.0834 32.9565 24.7149 31.3849C25.3464 29.761 25.6621 27.194 25.6621 23.5793C25.6621 18.8122 24.978 15.5642 23.5571 13.7831C22.1362 12.0019 19.8207 11.1637 16.5578 11.1637H13.4003L13.3476 11.1114Z" fill="white"/>
<path d="M42.2906 0.895996H71.0203V10.0743H52.6652V19.2002H63.8379V27.5918H52.6652V36.7177H71.6587V45.896H42.2906V0.895996Z" fill="white"/>
<path d="M104.555 23.1079L117.126 0.895996H103.512L96.5741 14.726L89.428 0.895996H75.7095L88.3848 22.8983L75.8139 45.896H89.428L96.3655 32.066L103.512 45.896H117.23L104.555 23.1079Z" fill="white"/>
</svg> 
